<mxfile host="Electron" agent="Mozilla/5.0 (Windows NT 10.0; Win64; x64) AppleWebKit/537.36 (KHTML, like Gecko) draw.io/24.7.5 Chrome/126.0.6478.183 Electron/31.3.0 Safari/537.36" version="24.7.5">
  <diagram id="C5RBs43oDa-KdzZeNtuy" name="Page-1">
    <mxGraphModel dx="1290" dy="621" grid="1" gridSize="10" guides="1" tooltips="1" connect="1" arrows="1" fold="1" page="1" pageScale="1" pageWidth="827" pageHeight="1169" math="0" shadow="0">
      <root>
        <mxCell id="WIyWlLk6GJQsqaUBKTNV-0" />
        <mxCell id="WIyWlLk6GJQsqaUBKTNV-1" parent="WIyWlLk6GJQsqaUBKTNV-0" />
        <mxCell id="eJWU1rRoSbsQs6vA32qJ-0" value="SmsRequest" style="swimlane;fontStyle=1;align=center;verticalAlign=top;childLayout=stackLayout;horizontal=1;startSize=26;horizontalStack=0;resizeParent=1;resizeParentMax=0;resizeLast=0;collapsible=1;marginBottom=0;whiteSpace=wrap;html=1;" vertex="1" parent="WIyWlLk6GJQsqaUBKTNV-1">
          <mxGeometry x="90" y="130" width="530" height="212" as="geometry" />
        </mxCell>
        <mxCell id="eJWU1rRoSbsQs6vA32qJ-1" value="- telephoneNumber: string" style="text;strokeColor=none;fillColor=none;align=left;verticalAlign=top;spacingLeft=4;spacingRight=4;overflow=hidden;rotatable=0;points=[[0,0.5],[1,0.5]];portConstraint=eastwest;whiteSpace=wrap;html=1;" vertex="1" parent="eJWU1rRoSbsQs6vA32qJ-0">
          <mxGeometry y="26" width="530" height="24" as="geometry" />
        </mxCell>
        <mxCell id="eJWU1rRoSbsQs6vA32qJ-4" value="- verificationCode: string" style="text;strokeColor=none;fillColor=none;align=left;verticalAlign=top;spacingLeft=4;spacingRight=4;overflow=hidden;rotatable=0;points=[[0,0.5],[1,0.5]];portConstraint=eastwest;whiteSpace=wrap;html=1;" vertex="1" parent="eJWU1rRoSbsQs6vA32qJ-0">
          <mxGeometry y="50" width="530" height="24" as="geometry" />
        </mxCell>
        <mxCell id="eJWU1rRoSbsQs6vA32qJ-2" value="" style="line;strokeWidth=1;fillColor=none;align=left;verticalAlign=middle;spacingTop=-1;spacingLeft=3;spacingRight=3;rotatable=0;labelPosition=right;points=[];portConstraint=eastwest;strokeColor=inherit;" vertex="1" parent="eJWU1rRoSbsQs6vA32qJ-0">
          <mxGeometry y="74" width="530" height="8" as="geometry" />
        </mxCell>
        <mxCell id="eJWU1rRoSbsQs6vA32qJ-3" value="+ POST/api/registration-verification {[FromBody] SmsRequest smsRequest}:&amp;nbsp;IActionResult" style="text;strokeColor=none;fillColor=none;align=left;verticalAlign=top;spacingLeft=4;spacingRight=4;overflow=hidden;rotatable=0;points=[[0,0.5],[1,0.5]];portConstraint=eastwest;whiteSpace=wrap;html=1;" vertex="1" parent="eJWU1rRoSbsQs6vA32qJ-0">
          <mxGeometry y="82" width="530" height="26" as="geometry" />
        </mxCell>
        <mxCell id="eJWU1rRoSbsQs6vA32qJ-8" value="+ POST/api/login-verification: {[FromBody] SmsRequest smsRequest}:&amp;nbsp;IActionResult" style="text;strokeColor=none;fillColor=none;align=left;verticalAlign=top;spacingLeft=4;spacingRight=4;overflow=hidden;rotatable=0;points=[[0,0.5],[1,0.5]];portConstraint=eastwest;whiteSpace=wrap;html=1;" vertex="1" parent="eJWU1rRoSbsQs6vA32qJ-0">
          <mxGeometry y="108" width="530" height="26" as="geometry" />
        </mxCell>
        <mxCell id="eJWU1rRoSbsQs6vA32qJ-7" value="+ POST/api/reset-verification: {[FromBody] SmsRequest smsRequest}:&amp;nbsp;IActionResult" style="text;strokeColor=none;fillColor=none;align=left;verticalAlign=top;spacingLeft=4;spacingRight=4;overflow=hidden;rotatable=0;points=[[0,0.5],[1,0.5]];portConstraint=eastwest;whiteSpace=wrap;html=1;" vertex="1" parent="eJWU1rRoSbsQs6vA32qJ-0">
          <mxGeometry y="134" width="530" height="26" as="geometry" />
        </mxCell>
        <mxCell id="eJWU1rRoSbsQs6vA32qJ-6" value="+ POST/api/delete-verification: {[FromBody] SmsRequest smsRequest}:&amp;nbsp;IActionResult" style="text;strokeColor=none;fillColor=none;align=left;verticalAlign=top;spacingLeft=4;spacingRight=4;overflow=hidden;rotatable=0;points=[[0,0.5],[1,0.5]];portConstraint=eastwest;whiteSpace=wrap;html=1;" vertex="1" parent="eJWU1rRoSbsQs6vA32qJ-0">
          <mxGeometry y="160" width="530" height="26" as="geometry" />
        </mxCell>
        <mxCell id="eJWU1rRoSbsQs6vA32qJ-5" value="+ POST/api/change-verification: {[FromBody] SmsRequest smsRequest}:&amp;nbsp;IActionResult" style="text;strokeColor=none;fillColor=none;align=left;verticalAlign=top;spacingLeft=4;spacingRight=4;overflow=hidden;rotatable=0;points=[[0,0.5],[1,0.5]];portConstraint=eastwest;whiteSpace=wrap;html=1;" vertex="1" parent="eJWU1rRoSbsQs6vA32qJ-0">
          <mxGeometry y="186" width="530" height="26" as="geometry" />
        </mxCell>
        <mxCell id="eJWU1rRoSbsQs6vA32qJ-9" value="PasswordVerificationRequest" style="swimlane;fontStyle=1;align=center;verticalAlign=top;childLayout=stackLayout;horizontal=1;startSize=26;horizontalStack=0;resizeParent=1;resizeParentMax=0;resizeLast=0;collapsible=1;marginBottom=0;whiteSpace=wrap;html=1;" vertex="1" parent="WIyWlLk6GJQsqaUBKTNV-1">
          <mxGeometry x="40" y="400" width="180" height="78" as="geometry" />
        </mxCell>
        <mxCell id="eJWU1rRoSbsQs6vA32qJ-10" value="- userId: int" style="text;strokeColor=none;fillColor=none;align=left;verticalAlign=top;spacingLeft=4;spacingRight=4;overflow=hidden;rotatable=0;points=[[0,0.5],[1,0.5]];portConstraint=eastwest;whiteSpace=wrap;html=1;" vertex="1" parent="eJWU1rRoSbsQs6vA32qJ-9">
          <mxGeometry y="26" width="180" height="26" as="geometry" />
        </mxCell>
        <mxCell id="eJWU1rRoSbsQs6vA32qJ-23" value="- plainPassword: string" style="text;strokeColor=none;fillColor=none;align=left;verticalAlign=top;spacingLeft=4;spacingRight=4;overflow=hidden;rotatable=0;points=[[0,0.5],[1,0.5]];portConstraint=eastwest;whiteSpace=wrap;html=1;" vertex="1" parent="eJWU1rRoSbsQs6vA32qJ-9">
          <mxGeometry y="52" width="180" height="26" as="geometry" />
        </mxCell>
        <mxCell id="eJWU1rRoSbsQs6vA32qJ-24" value="PlainPasswordRequest" style="swimlane;fontStyle=1;align=center;verticalAlign=top;childLayout=stackLayout;horizontal=1;startSize=26;horizontalStack=0;resizeParent=1;resizeParentMax=0;resizeLast=0;collapsible=1;marginBottom=0;whiteSpace=wrap;html=1;" vertex="1" parent="WIyWlLk6GJQsqaUBKTNV-1">
          <mxGeometry x="265" y="400" width="180" height="52" as="geometry" />
        </mxCell>
        <mxCell id="eJWU1rRoSbsQs6vA32qJ-26" value="- plainPassword: string" style="text;strokeColor=none;fillColor=none;align=left;verticalAlign=top;spacingLeft=4;spacingRight=4;overflow=hidden;rotatable=0;points=[[0,0.5],[1,0.5]];portConstraint=eastwest;whiteSpace=wrap;html=1;" vertex="1" parent="eJWU1rRoSbsQs6vA32qJ-24">
          <mxGeometry y="26" width="180" height="26" as="geometry" />
        </mxCell>
        <mxCell id="eJWU1rRoSbsQs6vA32qJ-27" value="TelephoneRequest" style="swimlane;fontStyle=1;align=center;verticalAlign=top;childLayout=stackLayout;horizontal=1;startSize=26;horizontalStack=0;resizeParent=1;resizeParentMax=0;resizeLast=0;collapsible=1;marginBottom=0;whiteSpace=wrap;html=1;" vertex="1" parent="WIyWlLk6GJQsqaUBKTNV-1">
          <mxGeometry x="510" y="400" width="180" height="52" as="geometry" />
        </mxCell>
        <mxCell id="eJWU1rRoSbsQs6vA32qJ-28" value="-telephone: string" style="text;strokeColor=none;fillColor=none;align=left;verticalAlign=top;spacingLeft=4;spacingRight=4;overflow=hidden;rotatable=0;points=[[0,0.5],[1,0.5]];portConstraint=eastwest;whiteSpace=wrap;html=1;" vertex="1" parent="eJWU1rRoSbsQs6vA32qJ-27">
          <mxGeometry y="26" width="180" height="26" as="geometry" />
        </mxCell>
        <mxCell id="eJWU1rRoSbsQs6vA32qJ-30" value="Use" style="endArrow=open;endSize=12;dashed=1;html=1;rounded=0;entryX=0.5;entryY=0;entryDx=0;entryDy=0;exitX=0.5;exitY=1.04;exitDx=0;exitDy=0;exitPerimeter=0;" edge="1" parent="WIyWlLk6GJQsqaUBKTNV-1" source="eJWU1rRoSbsQs6vA32qJ-5" target="eJWU1rRoSbsQs6vA32qJ-9">
          <mxGeometry width="160" relative="1" as="geometry">
            <mxPoint x="280" y="340" as="sourcePoint" />
            <mxPoint x="440" y="340" as="targetPoint" />
            <Array as="points">
              <mxPoint x="355" y="360" />
              <mxPoint x="130" y="360" />
            </Array>
          </mxGeometry>
        </mxCell>
        <mxCell id="eJWU1rRoSbsQs6vA32qJ-31" value="Use" style="endArrow=open;endSize=12;dashed=1;html=1;rounded=0;entryX=0.5;entryY=0;entryDx=0;entryDy=0;" edge="1" parent="WIyWlLk6GJQsqaUBKTNV-1" source="eJWU1rRoSbsQs6vA32qJ-5" target="eJWU1rRoSbsQs6vA32qJ-24">
          <mxGeometry width="160" relative="1" as="geometry">
            <mxPoint x="280" y="340" as="sourcePoint" />
            <mxPoint x="440" y="340" as="targetPoint" />
          </mxGeometry>
        </mxCell>
        <mxCell id="eJWU1rRoSbsQs6vA32qJ-32" value="Use" style="endArrow=open;endSize=12;dashed=1;html=1;rounded=0;exitX=0.5;exitY=1.042;exitDx=0;exitDy=0;exitPerimeter=0;entryX=0.5;entryY=0;entryDx=0;entryDy=0;" edge="1" parent="WIyWlLk6GJQsqaUBKTNV-1" target="eJWU1rRoSbsQs6vA32qJ-27">
          <mxGeometry width="160" relative="1" as="geometry">
            <mxPoint x="355" y="342.002" as="sourcePoint" />
            <mxPoint x="410" y="378.91" as="targetPoint" />
            <Array as="points">
              <mxPoint x="355" y="360" />
              <mxPoint x="600" y="360" />
            </Array>
          </mxGeometry>
        </mxCell>
      </root>
    </mxGraphModel>
  </diagram>
</mxfile>
